<svg xmlns="http://www.w3.org/2000/svg" xmlns:xlink="http://www.w3.org/1999/xlink" version="1.1" class="marks" width="363" height="347" viewBox="0 0 363 347"><rect width="363" height="347" fill="white"/><g fill="none" stroke-miterlimit="10" transform="translate(58,10)"><g class="mark-group role-frame root" role="graphics-object" aria-roledescription="group mark container"><g transform="translate(0,0)"><path class="background" aria-hidden="true" d="M0.5,0.5h300v300h-300Z" stroke="#ddd"/><g><g class="mark-group role-axis" aria-hidden="true"><g transform="translate(0.5,300.5)"><path class="background" aria-hidden="true" d="M0,0h0v0h0Z" pointer-events="none"/><g><g class="mark-rule role-axis-grid" pointer-events="none"><line transform="translate(20,-300)" x2="0" y2="300" stroke="#ddd" stroke-width="1" opacity="1"/><line transform="translate(70,-300)" x2="0" y2="300" stroke="#ddd" stroke-width="1" opacity="1"/><line transform="translate(120,-300)" x2="0" y2="300" stroke="#ddd" stroke-width="1" opacity="1"/><line transform="translate(170,-300)" x2="0" y2="300" stroke="#ddd" stroke-width="1" opacity="1"/><line transform="translate(220,-300)" x2="0" y2="300" stroke="#ddd" stroke-width="1" opacity="1"/><line transform="translate(270,-300)" x2="0" y2="300" stroke="#ddd" stroke-width="1" opacity="1"/></g></g><path class="foreground" aria-hidden="true" d="" pointer-events="none" display="none"/></g></g><g class="mark-group role-axis" aria-hidden="true"><g transform="translate(0.5,0.5)"><path class="background" aria-hidden="true" d="M0,0h0v0h0Z" pointer-events="none"/><g><g class="mark-rule role-axis-grid" pointer-events="none"><line transform="translate(0,300)" x2="300" y2="0" stroke="#ddd" stroke-width="1" opacity="1"/><line transform="translate(0,267)" x2="300" y2="0" stroke="#ddd" stroke-width="1" opacity="1"/><line transform="translate(0,233)" x2="300" y2="0" stroke="#ddd" stroke-width="1" opacity="1"/><line transform="translate(0,200)" x2="300" y2="0" stroke="#ddd" stroke-width="1" opacity="1"/><line transform="translate(0,167)" x2="300" y2="0" stroke="#ddd" stroke-width="1" opacity="1"/><line transform="translate(0,133)" x2="300" y2="0" stroke="#ddd" stroke-width="1" opacity="1"/><line transform="translate(0,100)" x2="300" y2="0" stroke="#ddd" stroke-width="1" opacity="1"/><line transform="translate(0,67)" x2="300" y2="0" stroke="#ddd" stroke-width="1" opacity="1"/><line transform="translate(0,33)" x2="300" y2="0" stroke="#ddd" stroke-width="1" opacity="1"/><line transform="translate(0,0)" x2="300" y2="0" stroke="#ddd" stroke-width="1" opacity="1"/></g></g><path class="foreground" aria-hidden="true" d="" pointer-events="none" display="none"/></g></g><g class="mark-group role-axis" role="graphics-symbol" aria-roledescription="axis" aria-label="X-axis titled 'high_cycle, cycle_period' for a linear scale with values from −2 to 28"><g transform="translate(0.5,300.5)"><path class="background" aria-hidden="true" d="M0,0h0v0h0Z" pointer-events="none"/><g><g class="mark-rule role-axis-tick" pointer-events="none"><line transform="translate(20,0)" x2="0" y2="5" stroke="#888" stroke-width="1" opacity="1"/><line transform="translate(70,0)" x2="0" y2="5" stroke="#888" stroke-width="1" opacity="1"/><line transform="translate(120,0)" x2="0" y2="5" stroke="#888" stroke-width="1" opacity="1"/><line transform="translate(170,0)" x2="0" y2="5" stroke="#888" stroke-width="1" opacity="1"/><line transform="translate(220,0)" x2="0" y2="5" stroke="#888" stroke-width="1" opacity="1"/><line transform="translate(270,0)" x2="0" y2="5" stroke="#888" stroke-width="1" opacity="1"/></g><g class="mark-text role-axis-label" pointer-events="none"><text text-anchor="middle" transform="translate(20,15)" font-family="sans-serif" font-size="10px" fill="#000" opacity="1">0</text><text text-anchor="middle" transform="translate(70,15)" font-family="sans-serif" font-size="10px" fill="#000" opacity="1">5</text><text text-anchor="middle" transform="translate(120,15)" font-family="sans-serif" font-size="10px" fill="#000" opacity="1">10</text><text text-anchor="middle" transform="translate(170,15)" font-family="sans-serif" font-size="10px" fill="#000" opacity="1">15</text><text text-anchor="middle" transform="translate(219.99999999999997,15)" font-family="sans-serif" font-size="10px" fill="#000" opacity="1">20</text><text text-anchor="middle" transform="translate(270,15)" font-family="sans-serif" font-size="10px" fill="#000" opacity="1">25</text></g><g class="mark-rule role-axis-domain" pointer-events="none"><line transform="translate(0,0)" x2="300" y2="0" stroke="#888" stroke-width="1" opacity="1"/></g><g class="mark-text role-axis-title" pointer-events="none"><text text-anchor="middle" transform="translate(150,30)" font-family="sans-serif" font-size="11px" font-weight="bold" fill="#000" opacity="1">high_cycle, cycle_period</text></g></g><path class="foreground" aria-hidden="true" d="" pointer-events="none" display="none"/></g></g><g class="mark-group role-axis" role="graphics-symbol" aria-roledescription="axis" aria-label="Y-axis titled 'mean_change' for a linear scale with values from −0.003 to 0.006"><g transform="translate(0.5,0.5)"><path class="background" aria-hidden="true" d="M0,0h0v0h0Z" pointer-events="none"/><g><g class="mark-rule role-axis-tick" pointer-events="none"><line transform="translate(0,300)" x2="-5" y2="0" stroke="#888" stroke-width="1" opacity="1"/><line transform="translate(0,267)" x2="-5" y2="0" stroke="#888" stroke-width="1" opacity="1"/><line transform="translate(0,233)" x2="-5" y2="0" stroke="#888" stroke-width="1" opacity="1"/><line transform="translate(0,200)" x2="-5" y2="0" stroke="#888" stroke-width="1" opacity="1"/><line transform="translate(0,167)" x2="-5" y2="0" stroke="#888" stroke-width="1" opacity="1"/><line transform="translate(0,133)" x2="-5" y2="0" stroke="#888" stroke-width="1" opacity="1"/><line transform="translate(0,100)" x2="-5" y2="0" stroke="#888" stroke-width="1" opacity="1"/><line transform="translate(0,67)" x2="-5" y2="0" stroke="#888" stroke-width="1" opacity="1"/><line transform="translate(0,33)" x2="-5" y2="0" stroke="#888" stroke-width="1" opacity="1"/><line transform="translate(0,0)" x2="-5" y2="0" stroke="#888" stroke-width="1" opacity="1"/></g><g class="mark-text role-axis-label" pointer-events="none"><text text-anchor="end" transform="translate(-7,303)" font-family="sans-serif" font-size="10px" fill="#000" opacity="1">−0.003</text><text text-anchor="end" transform="translate(-7,269.66666666666663)" font-family="sans-serif" font-size="10px" fill="#000" opacity="1">−0.002</text><text text-anchor="end" transform="translate(-7,236.33333333333334)" font-family="sans-serif" font-size="10px" fill="#000" opacity="1">−0.001</text><text text-anchor="end" transform="translate(-7,203.00000000000003)" font-family="sans-serif" font-size="10px" fill="#000" opacity="1">0.000</text><text text-anchor="end" transform="translate(-7,169.66666666666669)" font-family="sans-serif" font-size="10px" fill="#000" opacity="1">0.001</text><text text-anchor="end" transform="translate(-7,136.33333333333337)" font-family="sans-serif" font-size="10px" fill="#000" opacity="1">0.002</text><text text-anchor="end" transform="translate(-7,103.00000000000001)" font-family="sans-serif" font-size="10px" fill="#000" opacity="1">0.003</text><text text-anchor="end" transform="translate(-7,69.6666666666667)" font-family="sans-serif" font-size="10px" fill="#000" opacity="1">0.004</text><text text-anchor="end" transform="translate(-7,36.33333333333335)" font-family="sans-serif" font-size="10px" fill="#000" opacity="1">0.005</text><text text-anchor="end" transform="translate(-7,3)" font-family="sans-serif" font-size="10px" fill="#000" opacity="1">0.006</text></g><g class="mark-rule role-axis-domain" pointer-events="none"><line transform="translate(0,300)" x2="0" y2="-300" stroke="#888" stroke-width="1" opacity="1"/></g><g class="mark-text role-axis-title" pointer-events="none"><text text-anchor="middle" transform="translate(-41.8642578125,150) rotate(-90) translate(0,-2)" font-family="sans-serif" font-size="11px" font-weight="bold" fill="#000" opacity="1">mean_change</text></g></g><path class="foreground" aria-hidden="true" d="" pointer-events="none" display="none"/></g></g><g class="mark-rect role-mark view_6bda5a908a69d783_0_marks" clip-path="url(#clip1)" role="graphics-object" aria-roledescription="rect mark container"><path aria-label="high_cycle: 0; mean_change: −0.0025484949681" role="graphics-symbol" aria-roledescription="bar" d="M17.5,200.00000000000003h5v84.94983226996132h-5Z" fill="#4c78a8"/><path aria-label="high_cycle: 1; mean_change: −0.00299270678804" role="graphics-symbol" aria-roledescription="bar" d="M27.5,200.00000000000003h5v99.75689293482728h-5Z" fill="#4c78a8"/><path aria-label="high_cycle: 2; mean_change: −0.00193163957787" role="graphics-symbol" aria-roledescription="bar" d="M37.5,200.00000000000003h5v64.38798592903382h-5Z" fill="#4c78a8"/><path aria-label="high_cycle: 3; mean_change: 0.000822975555301" role="graphics-symbol" aria-roledescription="bar" d="M47.5,172.56748148997286h5v27.432518510027165h-5Z" fill="#4c78a8"/><path aria-label="high_cycle: 4; mean_change: 0.00258822472644" role="graphics-symbol" aria-roledescription="bar" d="M57.5,113.72584245213456h5v86.27415754786547h-5Z" fill="#4c78a8"/><path aria-label="high_cycle: 5; mean_change: 0.0009192399027" role="graphics-symbol" aria-roledescription="bar" d="M67.5,169.35866990998613h5v30.641330090013895h-5Z" fill="#4c78a8"/><path aria-label="high_cycle: 6; mean_change: 0.00205290909435" role="graphics-symbol" aria-roledescription="bar" d="M77.5,131.56969685508665h5v68.43030314491338h-5Z" fill="#4c78a8"/><path aria-label="high_cycle: 7; mean_change: 0.00185613104761" role="graphics-symbol" aria-roledescription="bar" d="M87.5,138.12896507971078h5v61.87103492028925h-5Z" fill="#4c78a8"/><path aria-label="high_cycle: 8; mean_change: 0.00109407521993" role="graphics-symbol" aria-roledescription="bar" d="M97.5,163.5308260023273h5v36.469173997672726h-5Z" fill="#4c78a8"/><path aria-label="high_cycle: 9; mean_change: −0.000875079879365" role="graphics-symbol" aria-roledescription="bar" d="M107.49999999999999,200.00000000000003h5v29.169329312170532h-5Z" fill="#4c78a8"/><path aria-label="high_cycle: 10; mean_change: 0.00523880263969" role="graphics-symbol" aria-roledescription="bar" d="M117.5,25.373245343524488h5v174.62675465647555h-5Z" fill="#4c78a8"/><path aria-label="high_cycle: 11; mean_change: 0.00107731030495" role="graphics-symbol" aria-roledescription="bar" d="M127.5,164.08965650160857h5v35.910343498391455h-5Z" fill="#4c78a8"/><path aria-label="high_cycle: 12; mean_change: −0.00170970713181" role="graphics-symbol" aria-roledescription="bar" d="M137.5,200.00000000000003h5v56.990237726975096h-5Z" fill="#4c78a8"/><path aria-label="high_cycle: 13; mean_change: 0.000601070828644" role="graphics-symbol" aria-roledescription="bar" d="M147.5,179.96430571187338h5v20.03569428812665h-5Z" fill="#4c78a8"/><path aria-label="high_cycle: 14; mean_change: 0.00239871483943" role="graphics-symbol" aria-roledescription="bar" d="M157.5,120.04283868551919h5v79.95716131448084h-5Z" fill="#4c78a8"/><path aria-label="high_cycle: 15; mean_change: 0.00224164948339" role="graphics-symbol" aria-roledescription="bar" d="M167.5,125.27835055368962h5v74.72164944631041h-5Z" fill="#4c78a8"/><path aria-label="high_cycle: 16; mean_change: 0.0012341708809" role="graphics-symbol" aria-roledescription="bar" d="M177.5,158.86097063682578h5v41.139029363174245h-5Z" fill="#4c78a8"/><path aria-label="high_cycle: 17; mean_change: 0.00371385800762" role="graphics-symbol" aria-roledescription="bar" d="M187.5,76.20473307945117h5v123.79526692054885h-5Z" fill="#4c78a8"/><path aria-label="high_cycle: 18; mean_change: 0.00242694429778" role="graphics-symbol" aria-roledescription="bar" d="M197.5,119.10185674052263h5v80.8981432594774h-5Z" fill="#4c78a8"/><path aria-label="high_cycle: 19; mean_change: −0.000151879752907" role="graphics-symbol" aria-roledescription="bar" d="M207.5,200.00000000000003h5v5.062658430242436h-5Z" fill="#4c78a8"/><path aria-label="high_cycle: 20; mean_change: 0.00269210917485" role="graphics-symbol" aria-roledescription="bar" d="M217.49999999999997,110.26302750491782h5v89.73697249508221h-5Z" fill="#4c78a8"/><path aria-label="high_cycle: 21; mean_change: 0.0008952906089" role="graphics-symbol" aria-roledescription="bar" d="M227.50000000000003,170.15697970334048h5v29.843020296659546h-5Z" fill="#4c78a8"/><path aria-label="high_cycle: 22; mean_change: 0.00109010314118" role="graphics-symbol" aria-roledescription="bar" d="M237.5,163.6632286271701h5v36.33677137282993h-5Z" fill="#4c78a8"/><path aria-label="high_cycle: 23; mean_change: 0.0000213326640462" role="graphics-symbol" aria-roledescription="bar" d="M247.5,199.28891119846165h5v0.7110888015383807h-5Z" fill="#4c78a8"/><path aria-label="high_cycle: 24; mean_change: 0.00217451070553" role="graphics-symbol" aria-roledescription="bar" d="M257.5,127.51630981577831h5v72.48369018422171h-5Z" fill="#4c78a8"/><path aria-label="high_cycle: 25; mean_change: 0.00305778755087" role="graphics-symbol" aria-roledescription="bar" d="M267.5,98.0737483044725h5v101.92625169552753h-5Z" fill="#4c78a8"/><path aria-label="high_cycle: 26; mean_change: 0.00375858073508" role="graphics-symbol" aria-roledescription="bar" d="M277.5,74.71397549742859h5v125.28602450257144h-5Z" fill="#4c78a8"/></g><g class="mark-rule role-mark layer_1_marks" clip-path="url(#clip2)" role="graphics-object" aria-roledescription="rule mark container" pointer-events="none"><line aria-label="cycle_period: 0" role="graphics-symbol" aria-roledescription="rule mark" transform="translate(20,0)" x2="0" y2="300" stroke="red" stroke-width="4" opacity="0.5"/><line aria-label="cycle_period: 8" role="graphics-symbol" aria-roledescription="rule mark" transform="translate(100,0)" x2="0" y2="300" stroke="red" stroke-width="4" opacity="0.5"/><line aria-label="cycle_period: 17" role="graphics-symbol" aria-roledescription="rule mark" transform="translate(190,0)" x2="0" y2="300" stroke="red" stroke-width="4" opacity="0.5"/><line aria-label="cycle_period: 27" role="graphics-symbol" aria-roledescription="rule mark" transform="translate(290,0)" x2="0" y2="300" stroke="red" stroke-width="4" opacity="0.5"/></g></g><path class="foreground" aria-hidden="true" d="" display="none"/></g></g></g><defs><clipPath id="clip1"><rect x="0" y="0" width="300" height="300"/></clipPath><clipPath id="clip2"><rect x="0" y="0" width="300" height="300"/></clipPath></defs></svg>