<svg xmlns="http://www.w3.org/2000/svg" xmlns:xlink="http://www.w3.org/1999/xlink" version="1.1" class="marks" width="572" height="360" viewBox="0 0 572 360"><rect width="572" height="360" fill="white"/><g fill="none" stroke-miterlimit="10" transform="translate(58,10)"><g class="mark-group role-frame root" role="graphics-object" aria-roledescription="group mark container"><g transform="translate(0,0)"><path class="background" aria-hidden="true" d="M0.5,0.5h420v300h-420Z" stroke="#ddd"/><g><g class="mark-group role-axis" aria-hidden="true"><g transform="translate(0.5,0.5)"><path class="background" aria-hidden="true" d="M0,0h0v0h0Z" pointer-events="none"/><g><g class="mark-rule role-axis-grid" pointer-events="none"><line transform="translate(0,300)" x2="420" y2="0" stroke="#ddd" stroke-width="1" opacity="1"/><line transform="translate(0,267)" x2="420" y2="0" stroke="#ddd" stroke-width="1" opacity="1"/><line transform="translate(0,233)" x2="420" y2="0" stroke="#ddd" stroke-width="1" opacity="1"/><line transform="translate(0,200)" x2="420" y2="0" stroke="#ddd" stroke-width="1" opacity="1"/><line transform="translate(0,167)" x2="420" y2="0" stroke="#ddd" stroke-width="1" opacity="1"/><line transform="translate(0,133)" x2="420" y2="0" stroke="#ddd" stroke-width="1" opacity="1"/><line transform="translate(0,100)" x2="420" y2="0" stroke="#ddd" stroke-width="1" opacity="1"/><line transform="translate(0,67)" x2="420" y2="0" stroke="#ddd" stroke-width="1" opacity="1"/><line transform="translate(0,33)" x2="420" y2="0" stroke="#ddd" stroke-width="1" opacity="1"/><line transform="translate(0,0)" x2="420" y2="0" stroke="#ddd" stroke-width="1" opacity="1"/></g></g><path class="foreground" aria-hidden="true" d="" pointer-events="none" display="none"/></g></g><g class="mark-group role-axis" role="graphics-symbol" aria-roledescription="axis" aria-label="X-axis titled 'calendar_year' for a discrete scale with 21 values: 1927, 1935, 1936, 1945, 1946, ending with 2017"><g transform="translate(0.5,300.5)"><path class="background" aria-hidden="true" d="M0,0h0v0h0Z" pointer-events="none"/><g><g class="mark-rule role-axis-tick" pointer-events="none"><line transform="translate(10,0)" x2="0" y2="5" stroke="#888" stroke-width="1" opacity="1"/><line transform="translate(30,0)" x2="0" y2="5" stroke="#888" stroke-width="1" opacity="1"/><line transform="translate(50,0)" x2="0" y2="5" stroke="#888" stroke-width="1" opacity="1"/><line transform="translate(70,0)" x2="0" y2="5" stroke="#888" stroke-width="1" opacity="1"/><line transform="translate(90,0)" x2="0" y2="5" stroke="#888" stroke-width="1" opacity="1"/><line transform="translate(110,0)" x2="0" y2="5" stroke="#888" stroke-width="1" opacity="1"/><line transform="translate(130,0)" x2="0" y2="5" stroke="#888" stroke-width="1" opacity="1"/><line transform="translate(150,0)" x2="0" y2="5" stroke="#888" stroke-width="1" opacity="1"/><line transform="translate(170,0)" x2="0" y2="5" stroke="#888" stroke-width="1" opacity="1"/><line transform="translate(190,0)" x2="0" y2="5" stroke="#888" stroke-width="1" opacity="1"/><line transform="translate(210,0)" x2="0" y2="5" stroke="#888" stroke-width="1" opacity="1"/><line transform="translate(230,0)" x2="0" y2="5" stroke="#888" stroke-width="1" opacity="1"/><line transform="translate(250,0)" x2="0" y2="5" stroke="#888" stroke-width="1" opacity="1"/><line transform="translate(270,0)" x2="0" y2="5" stroke="#888" stroke-width="1" opacity="1"/><line transform="translate(290,0)" x2="0" y2="5" stroke="#888" stroke-width="1" opacity="1"/><line transform="translate(310,0)" x2="0" y2="5" stroke="#888" stroke-width="1" opacity="1"/><line transform="translate(330,0)" x2="0" y2="5" stroke="#888" stroke-width="1" opacity="1"/><line transform="translate(350,0)" x2="0" y2="5" stroke="#888" stroke-width="1" opacity="1"/><line transform="translate(370,0)" x2="0" y2="5" stroke="#888" stroke-width="1" opacity="1"/><line transform="translate(390,0)" x2="0" y2="5" stroke="#888" stroke-width="1" opacity="1"/><line transform="translate(410,0)" x2="0" y2="5" stroke="#888" stroke-width="1" opacity="1"/></g><g class="mark-text role-axis-label" pointer-events="none"><text text-anchor="end" transform="translate(9.5,7) rotate(270) translate(0,3)" font-family="sans-serif" font-size="10px" fill="#000" opacity="1">1927</text><text text-anchor="end" transform="translate(29.5,7) rotate(270) translate(0,3)" font-family="sans-serif" font-size="10px" fill="#000" opacity="1">1935</text><text text-anchor="end" transform="translate(49.5,7) rotate(270) translate(0,3)" font-family="sans-serif" font-size="10px" fill="#000" opacity="1">1936</text><text text-anchor="end" transform="translate(69.5,7) rotate(270) translate(0,3)" font-family="sans-serif" font-size="10px" fill="#000" opacity="1">1945</text><text text-anchor="end" transform="translate(89.5,7) rotate(270) translate(0,3)" font-family="sans-serif" font-size="10px" fill="#000" opacity="1">1946</text><text text-anchor="end" transform="translate(109.5,7) rotate(270) translate(0,3)" font-family="sans-serif" font-size="10px" fill="#000" opacity="1">1953</text><text text-anchor="end" transform="translate(129.5,7) rotate(270) translate(0,3)" font-family="sans-serif" font-size="10px" fill="#000" opacity="1">1954</text><text text-anchor="end" transform="translate(149.5,7) rotate(270) translate(0,3)" font-family="sans-serif" font-size="10px" fill="#000" opacity="1">1962</text><text text-anchor="end" transform="translate(169.5,7) rotate(270) translate(0,3)" font-family="sans-serif" font-size="10px" fill="#000" opacity="1">1963</text><text text-anchor="end" transform="translate(189.5,7) rotate(270) translate(0,3)" font-family="sans-serif" font-size="10px" fill="#000" opacity="1">1972</text><text text-anchor="end" transform="translate(209.5,7) rotate(270) translate(0,3)" font-family="sans-serif" font-size="10px" fill="#000" opacity="1">1973</text><text text-anchor="end" transform="translate(229.5,7) rotate(270) translate(0,3)" font-family="sans-serif" font-size="10px" fill="#000" opacity="1">1980</text><text text-anchor="end" transform="translate(249.5,7) rotate(270) translate(0,3)" font-family="sans-serif" font-size="10px" fill="#000" opacity="1">1981</text><text text-anchor="end" transform="translate(269.5,7) rotate(270) translate(0,3)" font-family="sans-serif" font-size="10px" fill="#000" opacity="1">1989</text><text text-anchor="end" transform="translate(289.5,7) rotate(270) translate(0,3)" font-family="sans-serif" font-size="10px" fill="#000" opacity="1">1990</text><text text-anchor="end" transform="translate(309.5,7) rotate(270) translate(0,3)" font-family="sans-serif" font-size="10px" fill="#000" opacity="1">1999</text><text text-anchor="end" transform="translate(329.5,7) rotate(270) translate(0,3)" font-family="sans-serif" font-size="10px" fill="#000" opacity="1">2000</text><text text-anchor="end" transform="translate(349.5,7) rotate(270) translate(0,3)" font-family="sans-serif" font-size="10px" fill="#000" opacity="1">2007</text><text text-anchor="end" transform="translate(369.5,7) rotate(270) translate(0,3)" font-family="sans-serif" font-size="10px" fill="#000" opacity="1">2008</text><text text-anchor="end" transform="translate(389.5,7) rotate(270) translate(0,3)" font-family="sans-serif" font-size="10px" fill="#000" opacity="1">2016</text><text text-anchor="end" transform="translate(409.5,7) rotate(270) translate(0,3)" font-family="sans-serif" font-size="10px" fill="#000" opacity="1">2017</text></g><g class="mark-rule role-axis-domain" pointer-events="none"><line transform="translate(0,0)" x2="420" y2="0" stroke="#888" stroke-width="1" opacity="1"/></g><g class="mark-text role-axis-title" pointer-events="none"><text text-anchor="middle" transform="translate(210,42.24609375)" font-family="sans-serif" font-size="11px" font-weight="bold" fill="#000" opacity="1">calendar_year</text></g></g><path class="foreground" aria-hidden="true" d="" pointer-events="none" display="none"/></g></g><g class="mark-group role-axis" role="graphics-symbol" aria-roledescription="axis" aria-label="Y-axis titled 'mean_weekly_roc' for a linear scale with values from −0.008 to 0.010"><g transform="translate(0.5,0.5)"><path class="background" aria-hidden="true" d="M0,0h0v0h0Z" pointer-events="none"/><g><g class="mark-rule role-axis-tick" pointer-events="none"><line transform="translate(0,300)" x2="-5" y2="0" stroke="#888" stroke-width="1" opacity="1"/><line transform="translate(0,267)" x2="-5" y2="0" stroke="#888" stroke-width="1" opacity="1"/><line transform="translate(0,233)" x2="-5" y2="0" stroke="#888" stroke-width="1" opacity="1"/><line transform="translate(0,200)" x2="-5" y2="0" stroke="#888" stroke-width="1" opacity="1"/><line transform="translate(0,167)" x2="-5" y2="0" stroke="#888" stroke-width="1" opacity="1"/><line transform="translate(0,133)" x2="-5" y2="0" stroke="#888" stroke-width="1" opacity="1"/><line transform="translate(0,100)" x2="-5" y2="0" stroke="#888" stroke-width="1" opacity="1"/><line transform="translate(0,67)" x2="-5" y2="0" stroke="#888" stroke-width="1" opacity="1"/><line transform="translate(0,33)" x2="-5" y2="0" stroke="#888" stroke-width="1" opacity="1"/><line transform="translate(0,0)" x2="-5" y2="0" stroke="#888" stroke-width="1" opacity="1"/></g><g class="mark-text role-axis-label" pointer-events="none"><text text-anchor="end" transform="translate(-7,303)" font-family="sans-serif" font-size="10px" fill="#000" opacity="1">−0.008</text><text text-anchor="end" transform="translate(-7,269.66666666666663)" font-family="sans-serif" font-size="10px" fill="#000" opacity="1">−0.006</text><text text-anchor="end" transform="translate(-7,236.33333333333334)" font-family="sans-serif" font-size="10px" fill="#000" opacity="1">−0.004</text><text text-anchor="end" transform="translate(-7,203.00000000000003)" font-family="sans-serif" font-size="10px" fill="#000" opacity="1">−0.002</text><text text-anchor="end" transform="translate(-7,169.66666666666669)" font-family="sans-serif" font-size="10px" fill="#000" opacity="1">0.000</text><text text-anchor="end" transform="translate(-7,136.33333333333337)" font-family="sans-serif" font-size="10px" fill="#000" opacity="1">0.002</text><text text-anchor="end" transform="translate(-7,103.00000000000001)" font-family="sans-serif" font-size="10px" fill="#000" opacity="1">0.004</text><text text-anchor="end" transform="translate(-7,69.6666666666667)" font-family="sans-serif" font-size="10px" fill="#000" opacity="1">0.006</text><text text-anchor="end" transform="translate(-7,36.33333333333335)" font-family="sans-serif" font-size="10px" fill="#000" opacity="1">0.008</text><text text-anchor="end" transform="translate(-7,3)" font-family="sans-serif" font-size="10px" fill="#000" opacity="1">0.010</text></g><g class="mark-rule role-axis-domain" pointer-events="none"><line transform="translate(0,300)" x2="0" y2="-300" stroke="#888" stroke-width="1" opacity="1"/></g><g class="mark-text role-axis-title" pointer-events="none"><text text-anchor="middle" transform="translate(-41.8642578125,150) rotate(-90) translate(0,-2)" font-family="sans-serif" font-size="11px" font-weight="bold" fill="#000" opacity="1">mean_weekly_roc</text></g></g><path class="foreground" aria-hidden="true" d="" pointer-events="none" display="none"/></g></g><g class="mark-rect role-mark marks" clip-path="url(#clip7)" role="graphics-object" aria-roledescription="rect mark container"><path aria-label="calendar_year: 1927; mean_weekly_roc: 0; category: 3_post_high" role="graphics-symbol" aria-roledescription="bar" d="M1,166.66666666666669h18v0h-18Z" fill="#f58518"/><path aria-label="calendar_year: 1935; mean_weekly_roc: 0.0080996896185; category: 2_high" role="graphics-symbol" aria-roledescription="bar" d="M21,31.67183969172137h18v134.9948269749453h-18Z" fill="#4c78a8"/><path aria-label="calendar_year: 1936; mean_weekly_roc: 0.0048202091298; category: 3_post_high" role="graphics-symbol" aria-roledescription="bar" d="M41,86.3298478367033h18v80.33681882996339h-18Z" fill="#f58518"/><path aria-label="calendar_year: 1945; mean_weekly_roc: 0.00577586463446; category: 2_high" role="graphics-symbol" aria-roledescription="bar" d="M61,70.40225609235834h18v96.26441057430834h-18Z" fill="#4c78a8"/><path aria-label="calendar_year: 1946; mean_weekly_roc: −0.00308435805572; category: 3_post_high" role="graphics-symbol" aria-roledescription="bar" d="M81,166.66666666666669h18v51.40596759534313h-18Z" fill="#f58518"/><path aria-label="calendar_year: 1953; mean_weekly_roc: −0.00079209723824; category: 2_high" role="graphics-symbol" aria-roledescription="bar" d="M101,166.66666666666669h18v13.201620637327977h-18Z" fill="#4c78a8"/><path aria-label="calendar_year: 1954; mean_weekly_roc: 0.00683435764516; category: 3_post_high" role="graphics-symbol" aria-roledescription="bar" d="M121,52.760705913922635h18v113.90596075274405h-18Z" fill="#f58518"/><path aria-label="calendar_year: 1962; mean_weekly_roc: −0.00107449456923; category: 2_high" role="graphics-symbol" aria-roledescription="bar" d="M141,166.66666666666669h18v17.90824282053336h-18Z" fill="#4c78a8"/><path aria-label="calendar_year: 1963; mean_weekly_roc: 0.00320353138934; category: 3_post_high" role="graphics-symbol" aria-roledescription="bar" d="M161,113.27447684428034h18v53.39218982238634h-18Z" fill="#f58518"/><path aria-label="calendar_year: 1972; mean_weekly_roc: 0.002914876152; category: 2_high" role="graphics-symbol" aria-roledescription="bar" d="M181,118.0853974666571h18v48.58126920000959h-18Z" fill="#4c78a8"/><path aria-label="calendar_year: 1973; mean_weekly_roc: −0.00434968504724; category: 3_post_high" role="graphics-symbol" aria-roledescription="bar" d="M201,166.66666666666669h18v72.49475078726425h-18Z" fill="#f58518"/><path aria-label="calendar_year: 1980; mean_weekly_roc: 0.00401656526199; category: 2_high" role="graphics-symbol" aria-roledescription="bar" d="M221,99.72391230019379h18v66.9427543664729h-18Z" fill="#4c78a8"/><path aria-label="calendar_year: 1981; mean_weekly_roc: −0.00192838057305; category: 3_post_high" role="graphics-symbol" aria-roledescription="bar" d="M241,166.66666666666669h18v32.13967621754426h-18Z" fill="#f58518"/><path aria-label="calendar_year: 1989; mean_weekly_roc: 0.00454804788221; category: 2_high" role="graphics-symbol" aria-roledescription="bar" d="M261,90.86586862981503h18v75.80079803685166h-18Z" fill="#4c78a8"/><path aria-label="calendar_year: 1990; mean_weekly_roc: −0.00185414798534; category: 3_post_high" role="graphics-symbol" aria-roledescription="bar" d="M281,166.66666666666669h18v30.902466422338023h-18Z" fill="#f58518"/><path aria-label="calendar_year: 1999; mean_weekly_roc: 0.00267936964588; category: 2_high" role="graphics-symbol" aria-roledescription="bar" d="M301,122.01050590195742h18v44.65616076470927h-18Z" fill="#4c78a8"/><path aria-label="calendar_year: 2000; mean_weekly_roc: −0.00151798152542; category: 3_post_high" role="graphics-symbol" aria-roledescription="bar" d="M321,166.66666666666669h18v25.299692090405642h-18Z" fill="#f58518"/><path aria-label="calendar_year: 2007; mean_weekly_roc: 0.000077310798002; category: 2_high" role="graphics-symbol" aria-roledescription="bar" d="M341,165.37815336663326h18v1.2885133000334292h-18Z" fill="#4c78a8"/><path aria-label="calendar_year: 2008; mean_weekly_roc: −0.00754804516943; category: 3_post_high" role="graphics-symbol" aria-roledescription="bar" d="M361,166.66666666666669h18v125.80075282376498h-18Z" fill="#f58518"/><path aria-label="calendar_year: 2016; mean_weekly_roc: 0.00337427280239; category: 2_high" role="graphics-symbol" aria-roledescription="bar" d="M381,110.4287866268171h18v56.237880039849586h-18Z" fill="#4c78a8"/><path aria-label="calendar_year: 2017; mean_weekly_roc: 0.00362051335509; category: 3_post_high" role="graphics-symbol" aria-roledescription="bar" d="M401,106.3247774151837h18v60.34188925148298h-18Z" fill="#f58518"/></g><g class="mark-group role-legend" role="graphics-symbol" aria-roledescription="legend" aria-label="Symbol legend titled 'category' for fill color with 2 values: 2_high, 3_post_high"><g transform="translate(438,0)"><path class="background" aria-hidden="true" d="M0,0h71v40h-71Z" pointer-events="none"/><g><g class="mark-group role-legend-entry"><g transform="translate(0,16)"><path class="background" aria-hidden="true" d="M0,0h0v0h0Z" pointer-events="none"/><g><g class="mark-group role-scope" role="graphics-object" aria-roledescription="group mark container"><g transform="translate(0,0)"><path class="background" aria-hidden="true" d="M0,0h70.4921875v11h-70.4921875Z" pointer-events="none" opacity="1"/><g><g class="mark-symbol role-legend-symbol" pointer-events="none"><path transform="translate(6,6)" d="M-5,-5h10v10h-10Z" fill="#4c78a8" stroke-width="1.5" opacity="1"/></g><g class="mark-text role-legend-label" pointer-events="none"><text text-anchor="start" transform="translate(16,9)" font-family="sans-serif" font-size="10px" fill="#000" opacity="1">2_high</text></g></g><path class="foreground" aria-hidden="true" d="" pointer-events="none" display="none"/></g><g transform="translate(0,13)"><path class="background" aria-hidden="true" d="M0,0h70.4921875v11h-70.4921875Z" pointer-events="none" opacity="1"/><g><g class="mark-symbol role-legend-symbol" pointer-events="none"><path transform="translate(6,6)" d="M-5,-5h10v10h-10Z" fill="#f58518" stroke-width="1.5" opacity="1"/></g><g class="mark-text role-legend-label" pointer-events="none"><text text-anchor="start" transform="translate(16,9)" font-family="sans-serif" font-size="10px" fill="#000" opacity="1">3_post_high</text></g></g><path class="foreground" aria-hidden="true" d="" pointer-events="none" display="none"/></g></g></g><path class="foreground" aria-hidden="true" d="" pointer-events="none" display="none"/></g></g><g class="mark-text role-legend-title" pointer-events="none"><text text-anchor="start" transform="translate(0,9)" font-family="sans-serif" font-size="11px" font-weight="bold" fill="#000" opacity="1">category</text></g></g><path class="foreground" aria-hidden="true" d="" pointer-events="none" display="none"/></g></g></g><path class="foreground" aria-hidden="true" d="" display="none"/></g></g></g><defs><clipPath id="clip7"><rect x="0" y="0" width="420" height="300"/></clipPath></defs></svg>