<svg xmlns="http://www.w3.org/2000/svg" xmlns:xlink="http://www.w3.org/1999/xlink" version="1.1" class="marks" width="1059" height="389" viewBox="0 0 1059 389"><rect width="1059" height="389" fill="white"/><g fill="none" stroke-miterlimit="10" transform="translate(53,10)"><g class="mark-group role-frame root" role="graphics-object" aria-roledescription="group mark container"><g transform="translate(0,0)"><path class="background" aria-hidden="true" d="M0.5,0.5h1000v300h-1000Z" stroke="#ddd"/><g><g class="mark-group role-axis" aria-hidden="true"><g transform="translate(0.5,0.5)"><path class="background" aria-hidden="true" d="M0,0h0v0h0Z" pointer-events="none"/><g><g class="mark-rule role-axis-grid" pointer-events="none"><line transform="translate(0,300)" x2="1000" y2="0" stroke="#ddd" stroke-width="1" opacity="1"/><line transform="translate(0,270)" x2="1000" y2="0" stroke="#ddd" stroke-width="1" opacity="1"/><line transform="translate(0,240)" x2="1000" y2="0" stroke="#ddd" stroke-width="1" opacity="1"/><line transform="translate(0,210)" x2="1000" y2="0" stroke="#ddd" stroke-width="1" opacity="1"/><line transform="translate(0,180)" x2="1000" y2="0" stroke="#ddd" stroke-width="1" opacity="1"/><line transform="translate(0,150)" x2="1000" y2="0" stroke="#ddd" stroke-width="1" opacity="1"/><line transform="translate(0,120)" x2="1000" y2="0" stroke="#ddd" stroke-width="1" opacity="1"/><line transform="translate(0,90)" x2="1000" y2="0" stroke="#ddd" stroke-width="1" opacity="1"/><line transform="translate(0,60)" x2="1000" y2="0" stroke="#ddd" stroke-width="1" opacity="1"/><line transform="translate(0,30)" x2="1000" y2="0" stroke="#ddd" stroke-width="1" opacity="1"/><line transform="translate(0,0)" x2="1000" y2="0" stroke="#ddd" stroke-width="1" opacity="1"/></g></g><path class="foreground" aria-hidden="true" d="" pointer-events="none" display="none"/></g></g><g class="mark-group role-axis" role="graphics-symbol" aria-roledescription="axis" aria-label="X-axis titled 'season' for a discrete scale with 375 values: 002:01:Jan, 003:01:Jan, 004:01:Jan, 005:01:Jan, 006:01:Jan, ending with 366:12:Dec"><g transform="translate(0.5,300.5)"><path class="background" aria-hidden="true" d="M0,0h0v0h0Z" pointer-events="none"/><g><g class="mark-rule role-axis-tick" pointer-events="none"><line transform="translate(478,0)" x2="0" y2="5" stroke="#888" stroke-width="1" opacity="1"/><line transform="translate(668,0)" x2="0" y2="5" stroke="#888" stroke-width="1" opacity="1"/></g><g class="mark-text role-axis-label" pointer-events="none"><text text-anchor="end" transform="translate(478.16666666666663,7) rotate(270) translate(0,3)" font-family="sans-serif" font-size="10px" fill="#000" opacity="1">177:06:Jun</text><text text-anchor="end" transform="translate(667.5,7) rotate(270) translate(0,3)" font-family="sans-serif" font-size="10px" fill="#000" opacity="1">245:09:Sep</text></g><g class="mark-rule role-axis-domain" pointer-events="none"><line transform="translate(0,0)" x2="1000" y2="0" stroke="#888" stroke-width="1" opacity="1"/></g><g class="mark-text role-axis-title" pointer-events="none"><text text-anchor="middle" transform="translate(500,71.1572265625)" font-family="sans-serif" font-size="11px" font-weight="bold" fill="#000" opacity="1">season</text></g></g><path class="foreground" aria-hidden="true" d="" pointer-events="none" display="none"/></g></g><g class="mark-group role-axis" role="graphics-symbol" aria-roledescription="axis" aria-label="Y-axis titled 'cumsum' for a linear scale with values from 0.00 to 0.05"><g transform="translate(0.5,0.5)"><path class="background" aria-hidden="true" d="M0,0h0v0h0Z" pointer-events="none"/><g><g class="mark-rule role-axis-tick" pointer-events="none"><line transform="translate(0,300)" x2="-5" y2="0" stroke="#888" stroke-width="1" opacity="1"/><line transform="translate(0,270)" x2="-5" y2="0" stroke="#888" stroke-width="1" opacity="1"/><line transform="translate(0,240)" x2="-5" y2="0" stroke="#888" stroke-width="1" opacity="1"/><line transform="translate(0,210)" x2="-5" y2="0" stroke="#888" stroke-width="1" opacity="1"/><line transform="translate(0,180)" x2="-5" y2="0" stroke="#888" stroke-width="1" opacity="1"/><line transform="translate(0,150)" x2="-5" y2="0" stroke="#888" stroke-width="1" opacity="1"/><line transform="translate(0,120)" x2="-5" y2="0" stroke="#888" stroke-width="1" opacity="1"/><line transform="translate(0,90)" x2="-5" y2="0" stroke="#888" stroke-width="1" opacity="1"/><line transform="translate(0,60)" x2="-5" y2="0" stroke="#888" stroke-width="1" opacity="1"/><line transform="translate(0,30)" x2="-5" y2="0" stroke="#888" stroke-width="1" opacity="1"/><line transform="translate(0,0)" x2="-5" y2="0" stroke="#888" stroke-width="1" opacity="1"/></g><g class="mark-text role-axis-label" pointer-events="none"><text text-anchor="end" transform="translate(-7,303)" font-family="sans-serif" font-size="10px" fill="#000" opacity="1">0.000</text><text text-anchor="end" transform="translate(-7,273)" font-family="sans-serif" font-size="10px" fill="#000" opacity="1">0.005</text><text text-anchor="end" transform="translate(-7,243)" font-family="sans-serif" font-size="10px" fill="#000" opacity="1">0.010</text><text text-anchor="end" transform="translate(-7,213)" font-family="sans-serif" font-size="10px" fill="#000" opacity="1">0.015</text><text text-anchor="end" transform="translate(-7,183.00000000000003)" font-family="sans-serif" font-size="10px" fill="#000" opacity="1">0.020</text><text text-anchor="end" transform="translate(-7,153)" font-family="sans-serif" font-size="10px" fill="#000" opacity="1">0.025</text><text text-anchor="end" transform="translate(-7,123)" font-family="sans-serif" font-size="10px" fill="#000" opacity="1">0.030</text><text text-anchor="end" transform="translate(-7,92.99999999999999)" font-family="sans-serif" font-size="10px" fill="#000" opacity="1">0.035</text><text text-anchor="end" transform="translate(-7,63.00000000000002)" font-family="sans-serif" font-size="10px" fill="#000" opacity="1">0.040</text><text text-anchor="end" transform="translate(-7,33.00000000000003)" font-family="sans-serif" font-size="10px" fill="#000" opacity="1">0.045</text><text text-anchor="end" transform="translate(-7,3)" font-family="sans-serif" font-size="10px" fill="#000" opacity="1">0.050</text></g><g class="mark-rule role-axis-domain" pointer-events="none"><line transform="translate(0,300)" x2="0" y2="-300" stroke="#888" stroke-width="1" opacity="1"/></g><g class="mark-text role-axis-title" pointer-events="none"><text text-anchor="middle" transform="translate(-36.0244140625,150) rotate(-90) translate(0,-2)" font-family="sans-serif" font-size="11px" font-weight="bold" fill="#000" opacity="1">cumsum</text></g></g><path class="foreground" aria-hidden="true" d="" pointer-events="none" display="none"/></g></g><g class="mark-line role-mark layer_0_marks" role="graphics-object" aria-roledescription="line mark container"><path aria-label="season: 002:01:Jan; cumsum: 0.00193582756639; diff: 0.00193582756639; samples: 56" role="graphics-symbol" aria-roledescription="line mark" d="M1.333,288.385L4,282.186L6.667,285.011L9.333,274.536L12,279.477L14.667,276.013L17.333,278.549L20,276.407L22.667,276.922L25.333,280.67L28,279.962L30.667,275.932L33.333,276.469L36,274.272L38.667,273.147L41.333,274.72L44,276.628L46.667,279.294L49.333,283.657L52,285.27L54.667,277.897L57.333,275.384L60,274.824L62.667,274.753L65.333,272.291L68,269.165L70.667,263.86L73.333,262.744L76,256.865L78.667,253.125L81.333,254.057L84,254.663L86.667,255.905L89.333,258.483L92,257.543L94.667,259.747L97.333,255.989L100,259.258L102.667,259.689L105.333,257.938L108,256.108L110.667,249.518L113.333,248.969L116,243.704L118.667,245.263L121.333,251.075L124,254.681L126.667,259.528L129.333,259.182L132,261.041L134.667,267.929L137.333,270.037L140,263.804L142.667,267.806L145.333,266.735L148,268.051L150.667,269.335L153.333,264.978L156,255.638L158.667,253.007L161.333,246.885L164,240.607L166.667,238.459L169.333,241.225L172,244.437L174.667,248.665L177.333,251.921L180,247.298L182.667,247.676L185.333,247.624L188,253.34L190.667,247.545L193.333,246.699L196,244.815L198.667,243.676L201.333,237.64L204,239.046L206.667,239.779L209.333,238.686L212,245.53L214.667,248.735L217.333,244.659L220,242.519L222.667,242.45L225.333,240.698L228,248.094L230.667,249.082L233.333,248.842L236,249.729L238.667,243.955L241.333,245.987L244,238.184L246.667,238.283L249.333,239.696L252,233.311L254.667,238.334L257.333,237.893L260,233.322L262.667,225.565L265.333,221.189L268,225.963L270.667,220.365L273.333,217.889L276,219.663L278.667,213.2L281.333,212.74L284,208.781L286.667,207.587L289.333,204.67L292,204.005L294.667,204.344L297.333,203.337L300,203.101L302.667,206.523L305.333,210.734L308,210.286L310.667,207.011L313.333,208.966L316,204.407L318.667,201.666L321.333,199.084L324,199.631L326.667,193.751L329.333,188.497L332,186.529L334.667,189.461L337.333,187.413L340,189.344L342.667,182.749L345.333,182.515L348,182.577L350.667,185.37L353.333,189.681L356,196.133L358.667,197.624L361.333,201.341L364,202.618L366.667,198.703L369.333,204.817L372,207.836L374.667,210.262L377.333,207.893L380,214.514L382.667,216.382L385.333,213.476L388,215.207L390.667,214.485L393.333,209.837L396,208.676L398.667,209.037L401.333,208.409L404,205.044L406.667,203.088L409.333,199.474L412,195.749L414.667,190.911L417.333,185.686L420,183.617L422.667,177.204L425.333,179.053L428,178.954L430.667,184.096L433.333,183.398L436,181.45L438.667,184.984L441.333,183.743L444,182.193L446.667,177.526L449.333,176.938L452,171.887L454.667,172.354L457.333,174.161L460,176.089L462.667,173.391L465.333,178.362L468,178.452L470.667,181.262L473.333,182.306L476,183.291L478.667,184.547L481.333,179.732L484,179.378L486.667,174.956L489.333,164.144L492,151.331L494.667,147.602L497.333,143.779L500,137.621L502.667,138.788L505.333,133.476L508,129.73L510.667,128.429L513.333,126.204L516,122.798L518.667,119.117L521.333,115.354L524,117.535L526.667,113.929L529.333,108.68L532,107.886L534.667,109.424L537.333,109.015L540,109.316L542.667,116.994L545.333,121.256L548,117.041L550.667,116.189L553.333,115.301L556,116.035L558.667,116.671L561.333,116.033L564,112.519L566.667,116.936L569.333,111.872L572,106.558L574.667,105.917L577.333,98.878L580,95.994L582.667,101.529L585.333,104.417L588,103.34L590.667,104.292L593.333,99.456L596,97.844L598.667,94.521L601.333,97.707L604,93.433L606.667,93.339L609.333,91.543L612,89.971L614.667,91.683L617.333,94.514L620,86.985L622.667,90.373L625.333,91.829L628,91.714L630.667,90.159L633.333,88.49L636,90.55L638.667,85.283L641.333,80.471L644,81.424L646.667,87.412L649.333,86.992L652,86.498L654.667,85.652L657.333,89.182L660,88.294L662.667,81.374L665.333,75.065L668,67.641L670.667,71.005L673.333,68.877L676,68.736L678.667,72.768L681.333,72.092L684,75.117L686.667,81.989L689.333,82.071L692,84.255L694.667,86.505L697.333,87.348L700,87.994L702.667,84.687L705.333,87.158L708,89.605L710.667,92.175L713.333,95.46L716,102.667L718.667,95.929L721.333,97.751L724,109.148L726.667,109.117L729.333,112.184L732,117.044L734.667,119.252L737.333,118.68L740,124.078L742.667,118.027L745.333,114.658L748,110.229L750.667,111.708L753.333,106.15L756,101.262L758.667,98.639L761.333,99.5L764,96.784L766.667,106.202L769.333,108.09L772,104.631L774.667,94.573L777.333,100.438L780,104.708L782.667,98.647L785.333,108.958L788,112.969L790.667,111.641L793.333,110.698L796,101.813L798.667,95.961L801.333,102.67L804,108.735L806.667,113.364L809.333,117.147L812,130.818L814.667,129.14L817.333,123.306L820,119.45L822.667,111.616L825.333,104.709L828,97.665L830.667,90.732L833.333,87.721L836,82.942L838.667,82.828L841.333,75.151L844,75.276L846.667,76.031L849.333,69.318L852,74.748L854.667,71.205L857.333,67.207L860,70.228L862.667,80.998L865.333,72.706L868,74.821L870.667,75.608L873.333,80.181L876,80.935L878.667,83.126L881.333,87.156L884,86.895L886.667,85.384L889.333,78.209L892,72.987L894.667,74.507L897.333,79.379L900,69.466L902.667,68.548L905.333,67.904L908,69.366L910.667,67.934L913.333,62.321L916,59.52L918.667,59.588L921.333,53.286L924,51.803L926.667,48.954L929.333,44.636L932,45.974L934.667,46.031L937.333,44.16L940,50.602L942.667,56.439L945.333,57.156L948,59.175L950.667,62.041L953.333,62.481L956,62.924L958.667,54.894L961.333,54.647L964,58.743L966.667,56.116L969.333,52.143L972,50.577L974.667,47.406L977.333,42.675L980,42.242L982.667,39.579L985.333,36.94L988,30.432L990.667,18.907L993.333,13.073L996,11.579L998.667,15.179" stroke="#4c78a8" stroke-width="2"/></g><g class="mark-rule role-mark layer_1_marks" role="graphics-symbol" aria-roledescription="rule mark container"><line transform="translate(478.66666666666663,0)" x2="0" y2="300" stroke="gray" stroke-dasharray="5,5"/></g><g class="mark-rule role-mark layer_2_marks" role="graphics-symbol" aria-roledescription="rule mark container"><line transform="translate(668,0)" x2="0" y2="300" stroke="gray" stroke-dasharray="5,5"/></g></g><path class="foreground" aria-hidden="true" d="" display="none"/></g></g></g></svg>